<?xml version="1.0" encoding="UTF-8"?>
<svg xmlns="http://www.w3.org/2000/svg" viewBox="0 0 1000 1294"
     font-family="'Helvetica Neue', Helvetica, Arial, sans-serif">
  <!-- Page background -->
  <rect width="1000" height="1294" fill="#ffffff"/>

  <!-- Watermark -->
  <text x="500" y="700" fill="#f0f0f0" font-size="68" font-weight="bold"
        text-anchor="middle" transform="rotate(-22 500 700)">DEMO STATEMENT — NOT FOR BILLING</text>

  <!-- ── Letterhead ─────────────────────────────────────────────────── -->
  <g transform="translate(60, 60)">
    <rect width="46" height="46" rx="6" fill="#3a2740"/>
    <rect x="9" y="9" width="28" height="6" rx="2" fill="#fff"/>
    <rect x="9" y="20" width="28" height="6" rx="2" fill="#fff"/>
    <rect x="9" y="31" width="28" height="6" rx="2" fill="#fff"/>
  </g>
  <g font-family="Georgia, 'Times New Roman', serif">
    <text x="120" y="86" font-size="28" font-weight="bold" fill="#3a2740">Harmony at Five Forks</text>
    <text x="120" y="106" font-size="13" fill="#6e5b7b" font-style="italic">Assisted Living &amp; Memory Care</text>
  </g>
  <g font-size="11" fill="#444">
    <text x="120" y="124">345 Five Forks Road · Simpsonville, SC 29681</text>
    <text x="120" y="138">Phone (864) 297-1010 · billing@harmonyfiveforks.com</text>
  </g>

  <text x="940" y="76" font-size="22" font-weight="bold" fill="#222" text-anchor="end">RESIDENT STATEMENT</text>

  <!-- Statement metadata block -->
  <g font-size="12" fill="#222">
    <text x="630" y="172" font-size="10" fill="#7a7a7a" font-weight="bold" letter-spacing="0.4">STATEMENT DATE</text>
    <text x="780" y="172" font-size="10" fill="#7a7a7a" font-weight="bold" letter-spacing="0.4">PAGE</text>
    <text x="850" y="172" font-size="10" fill="#7a7a7a" font-weight="bold" letter-spacing="0.4">INVOICE #</text>
    <text x="630" y="194" font-size="14" fill="#222">02/01/2026</text>
    <text x="780" y="194" font-size="14" fill="#222">1 of 2</text>
    <text x="850" y="194" font-size="14" fill="#bbb" font-style="italic">(not printed)</text>
  </g>

  <line x1="60" y1="220" x2="940" y2="220" stroke="#3a2740" stroke-width="1.5"/>

  <!-- Resident / Account block -->
  <g font-size="10" font-weight="bold" fill="#7a7a7a" letter-spacing="0.4">
    <text x="60" y="252">RESIDENT</text>
    <text x="360" y="252">ACCOUNT</text>
    <text x="560" y="252">UNIT</text>
    <text x="720" y="252">RESPONSIBLE PARTY</text>
  </g>
  <text x="60" y="290" font-size="18" font-weight="bold" fill="#222">Margaret</text>
  <text x="160" y="290" font-size="18" font-weight="bold" fill="#222">Justice</text>
  <text x="360" y="290" font-size="15" fill="#222">00024412</text>
  <text x="560" y="290" font-size="15" fill="#222">Apt 220</text>
  <text x="720" y="290" font-size="13" fill="#222">Timothy R. Justice (son)</text>

  <!-- Service Period block -->
  <line x1="60" y1="324" x2="940" y2="324" stroke="#ddd" stroke-width="1"/>
  <g font-size="10" font-weight="bold" fill="#7a7a7a" letter-spacing="0.4">
    <text x="60" y="356">SERVICE PERIOD</text>
    <text x="370" y="356">TOTAL FEE CHARGED</text>
    <text x="680" y="356">DUE BY</text>
  </g>
  <text x="60" y="394" font-size="20" fill="#222">11/24/2025</text>
  <text x="225" y="394" font-size="20" fill="#555">→</text>
  <text x="260" y="394" font-size="20" fill="#222">01/31/2026</text>
  <text x="370" y="394" font-size="22" font-weight="bold" fill="#222">$7,094.55</text>
  <text x="680" y="394" font-size="20" fill="#222">02/28/2026</text>

  <line x1="60" y1="424" x2="940" y2="424" stroke="#3a2740" stroke-width="1.5"/>

  <!-- Charges table -->
  <rect x="60" y="450" width="880" height="32" fill="#f4f0f5"/>
  <g font-size="11" font-weight="bold" fill="#3a2740" letter-spacing="0.3">
    <text x="74" y="471">#</text>
    <text x="108" y="471">DESCRIPTION</text>
    <text x="480" y="471">FROM</text>
    <text x="588" y="471">TO</text>
    <text x="700" y="471">SERVICE NAME</text>
    <text x="820" y="471">COVERAGE</text>
    <text x="926" y="471" text-anchor="end">AMOUNT</text>
  </g>

  <!-- Row 1 -->
  <text x="74" y="513" font-size="13" fill="#555">1</text>
  <text x="108" y="513" font-size="13" fill="#222">Level of Care - AL - 3</text>
  <text x="480" y="513" font-size="13" fill="#222">01/01/2026</text>
  <text x="588" y="513" font-size="13" fill="#222">01/31/2026</text>
  <text x="700" y="513" font-size="13" fill="#222">Room and board</text>
  <text x="820" y="513" font-size="11" fill="#1f7a3e" font-weight="bold">COVSRV</text>
  <text x="926" y="513" font-size="13" fill="#222" text-anchor="end">$1,400.00</text>
  <line x1="60" y1="528" x2="940" y2="528" stroke="#eee"/>

  <!-- Row 2 -->
  <text x="74" y="551" font-size="13" fill="#555">2</text>
  <text x="108" y="551" font-size="13" fill="#222">Rent - AL - Base Monthly Room Rate</text>
  <text x="480" y="551" font-size="13" fill="#222">01/01/2026</text>
  <text x="588" y="551" font-size="13" fill="#222">01/31/2026</text>
  <text x="700" y="551" font-size="13" fill="#222">Room and board</text>
  <text x="820" y="551" font-size="11" fill="#1f7a3e" font-weight="bold">COVSRV</text>
  <text x="926" y="551" font-size="13" fill="#222" text-anchor="end">$5,291.00</text>
  <line x1="60" y1="566" x2="940" y2="566" stroke="#eee"/>

  <!-- Row 3 -->
  <text x="74" y="589" font-size="13" fill="#555">3</text>
  <text x="108" y="589" font-size="13" fill="#222">Emergency Pendant Monthly Fee</text>
  <text x="480" y="589" font-size="13" fill="#222">01/01/2026</text>
  <text x="588" y="589" font-size="13" fill="#222">01/31/2026</text>
  <text x="700" y="589" font-size="13" fill="#222">Room and board</text>
  <text x="820" y="589" font-size="11" fill="#1f7a3e" font-weight="bold">COVSRV</text>
  <text x="926" y="589" font-size="13" fill="#222" text-anchor="end">$25.00</text>
  <line x1="60" y1="604" x2="940" y2="604" stroke="#eee"/>

  <!-- Row 4 -->
  <text x="74" y="627" font-size="13" fill="#555">4</text>
  <text x="108" y="627" font-size="13" fill="#222">Emergency Pendant Monthly Fee</text>
  <text x="480" y="627" font-size="13" fill="#222">12/09/2025</text>
  <text x="588" y="627" font-size="13" fill="#222">12/31/2025</text>
  <text x="700" y="627" font-size="13" fill="#222">Room and board</text>
  <text x="820" y="627" font-size="11" fill="#1f7a3e" font-weight="bold">COVSRV</text>
  <text x="926" y="627" font-size="13" fill="#222" text-anchor="end">$18.55</text>
  <line x1="60" y1="642" x2="940" y2="642" stroke="#eee"/>

  <!-- Row 5 -->
  <text x="74" y="665" font-size="13" fill="#555">5</text>
  <text x="108" y="665" font-size="13" fill="#222">Beauty / Barber Services Color / Cut</text>
  <text x="480" y="665" font-size="13" fill="#222">11/24/2025</text>
  <text x="588" y="665" font-size="13" fill="#222">11/24/2025</text>
  <text x="700" y="665" font-size="13" fill="#222">other</text>
  <text x="820" y="665" font-size="11" fill="#a85a00" font-weight="bold">UNCOVSR</text>
  <text x="926" y="665" font-size="13" fill="#222" text-anchor="end">$70.00</text>
  <line x1="60" y1="680" x2="940" y2="680" stroke="#eee"/>

  <!-- Row 6 -->
  <text x="74" y="703" font-size="13" fill="#555">6</text>
  <text x="108" y="703" font-size="13" fill="#222">Emergency Pendant Deposit one time pendant</text>
  <text x="480" y="703" font-size="13" fill="#222">12/09/2025</text>
  <text x="588" y="703" font-size="13" fill="#222">12/09/2025</text>
  <text x="700" y="703" font-size="13" fill="#222">other</text>
  <text x="820" y="703" font-size="11" fill="#a85a00" font-weight="bold">UNCOVSR</text>
  <text x="926" y="703" font-size="13" fill="#222" text-anchor="end">$250.00</text>
  <line x1="60" y1="718" x2="940" y2="718" stroke="#eee"/>

  <!-- Row 7 -->
  <text x="74" y="741" font-size="13" fill="#555">7</text>
  <text x="108" y="741" font-size="13" fill="#222">meals - guest</text>
  <text x="480" y="741" font-size="13" fill="#222">11/22/2025</text>
  <text x="588" y="741" font-size="13" fill="#222">11/22/2025</text>
  <text x="700" y="741" font-size="13" fill="#222">other</text>
  <text x="820" y="741" font-size="11" fill="#a85a00" font-weight="bold">UNCOVSR</text>
  <text x="926" y="741" font-size="13" fill="#222" text-anchor="end">$40.00</text>

  <!-- Total bar -->
  <line x1="60" y1="784" x2="940" y2="784" stroke="#3a2740" stroke-width="1.5"/>
  <rect x="600" y="800" width="340" height="48" rx="3" fill="#f4f0f5"/>
  <text x="618" y="831" font-size="13" font-weight="bold" fill="#3a2740">TOTAL FEE CHARGED</text>
  <text x="926" y="831" font-size="20" font-weight="bold" fill="#222" text-anchor="end">$7,094.55</text>

  <!-- Payment instructions -->
  <g font-size="11" fill="#444">
    <text x="60" y="900" font-weight="bold" fill="#3a2740">Payment Instructions</text>
    <text x="60" y="922">Please make checks payable to "Harmony at Five Forks" and reference the account number above.</text>
    <text x="60" y="940">Electronic payment available at harmonyfiveforks.com/pay · ACH routing on file.</text>
    <text x="60" y="958">Reimbursement questions: contact MetLife LTC Claims, 1-877-METLIFE.</text>
  </g>

  <!-- Charge summary -->
  <g font-size="11" fill="#444">
    <text x="60" y="1010" font-weight="bold" fill="#3a2740">Charge Summary by Service</text>
    <line x1="60" y1="1020" x2="500" y2="1020" stroke="#ccc"/>
    <text x="60"  y="1042">Room and board (covered)</text>
    <text x="500" y="1042" text-anchor="end">$6,734.55</text>
    <text x="60"  y="1062">Ancillary services (uncovered)</text>
    <text x="500" y="1062" text-anchor="end">$360.00</text>
    <line x1="60" y1="1074" x2="500" y2="1074" stroke="#ccc"/>
    <text x="60"  y="1096" font-weight="bold">Total</text>
    <text x="500" y="1096" text-anchor="end" font-weight="bold">$7,094.55</text>
  </g>

  <line x1="60" y1="1180" x2="940" y2="1180" stroke="#ccc"/>
  <text x="60" y="1210" font-size="10" fill="#7a7a7a">Harmony at Five Forks · 345 Five Forks Road · Simpsonville, SC 29681 · NPI 1234567890</text>
  <text x="940" y="1210" font-size="10" fill="#7a7a7a" text-anchor="end">Page 1 of 2</text>
</svg>
