<svg width="239" height="250" viewBox="0 0 239 250" fill="none" xmlns="http://www.w3.org/2000/svg">
  <g clip-path="url(#clip0_631_60)">
    <path d="M119.752 29.67C107.252 29.67 97.0417 39.8 96.9617 52.32C96.8817 64.88 107.042 75.16 119.612 75.24H119.752C125.782 75.24 131.462 72.91 135.762 68.67C140.092 64.39 142.502 58.68 142.532 52.6C142.572 46.52 140.232 40.78 135.962 36.45C131.682 32.12 125.982 29.72 119.892 29.68H119.752V29.67ZM119.752 104.91H119.422C90.4917 104.73 67.1117 81.05 67.2817 52.13C67.4617 23.31 90.9717 0 119.732 0H120.062C148.982 0.18 172.372 23.85 172.192 52.78C172.102 66.79 166.572 79.93 156.602 89.78C146.712 99.55 133.632 104.92 119.742 104.92M0.501709 107.18V163.94C0.501709 191.78 23.0617 214.34 50.9017 214.34H107.662C108.592 214.34 109.352 213.58 109.352 212.65V155.89C109.352 128.06 86.7917 105.49 58.9517 105.49H2.19171C1.26171 105.49 0.501709 106.25 0.501709 107.18Z" fill="#00CC00"/>
    <mask id="mask0_631_60" style="mask-type:luminance" maskUnits="userSpaceOnUse" x="0" y="105" width="110" height="110">
      <path d="M0.501709 107.18V163.94C0.501709 191.78 23.0617 214.34 50.9017 214.34H107.662C108.592 214.34 109.352 213.58 109.352 212.65V155.89C109.352 128.06 86.7917 105.49 58.9517 105.49H2.19171C1.26171 105.49 0.501709 106.25 0.501709 107.18Z" fill="white"/>
    </mask>
    <g mask="url(#mask0_631_60)">
      <path d="M-45.4423 130.75L84.1027 59.5339L155.315 189.07L25.7717 260.286L-45.4423 130.75Z" fill="#00CC00"/>
      <path d="M0.711731 -0.280029H1075.04V245.03H0.711731V-0.280029Z" fill="#00CC00"/>
    </g>
    <mask id="mask1_631_60" style="mask-type:luminance" maskUnits="userSpaceOnUse" x="130" y="105" width="109" height="145">
      <path d="M180.532 105.49C152.702 105.49 130.132 128.05 130.132 155.89V236.89C130.132 243.84 137.262 249.48 146.052 249.48C154.842 249.48 161.972 243.84 161.972 236.89V216.04C161.972 215.11 162.732 214.35 163.662 214.35H188.592C216.422 214.35 238.992 191.79 238.992 163.95V107.19C238.992 106.26 238.232 105.5 237.302 105.5H180.532V105.49Z" fill="white"/>
    </mask>
    <g mask="url(#mask1_631_60)">
      <path d="M70.6387 138.199L213.731 59.533L298.495 213.72L155.403 292.385L70.6387 138.199Z" fill="#00CC00"/>
      <path d="M4.53174 -0.280029H1078.86V245.03H4.53174V-0.280029Z" fill="#00CC00"/>
    </g>
  </g>
  <defs>
    <clipPath id="clip0_631_60">
      <rect width="238.49" height="249.48" fill="white" transform="translate(0.501709)"/>
    </clipPath>
  </defs>
</svg>
