<?xml version="1.0" encoding="UTF-8"?>
<svg xmlns="http://www.w3.org/2000/svg" viewBox="0 0 1000 1294" font-family="Helvetica, Arial, sans-serif">
  <rect width="1000" height="1294" fill="#ffffff"/>
  <text x="500" y="660" fill="#f4f4f4" font-size="80" font-weight="bold" text-anchor="middle" transform="rotate(-28 500 660)">MOCK — NOT A REAL FORM</text>

  <rect x="60" y="60" width="880" height="70" fill="#0a3d62"/>
  <text x="80" y="105" fill="#ffffff" font-size="24" font-weight="bold">TSS ADMIN SOLUTIONS — CLAIM FORM (STANDARD)</text>
  <text x="920" y="102" fill="#c8e2f0" font-size="13" text-anchor="end">Page 2 — Banking &amp; Reimbursement</text>

  <text x="60" y="170" fill="#0a3d62" font-size="22" font-weight="bold">6. REIMBURSEMENT — BANKING DETAILS</text>
  <line x1="60" y1="180" x2="940" y2="180" stroke="#0a3d62" stroke-width="1.5"/>

  <g font-size="13" fill="#222">
    <text x="60" y="220">Please reimburse me to the following account:</text>

    <text x="60" y="260" font-weight="bold">Reimbursement Method</text>
    <rect x="260" y="244" width="300" height="24" fill="#f6f8fb" stroke="#cbd5e0"/>
    <text x="272" y="261">ACHUSDOnly</text>
    <text x="600" y="260" font-weight="bold">Bank Currency</text>
    <rect x="740" y="244" width="180" height="24" fill="#f6f8fb" stroke="#cbd5e0"/>
    <text x="752" y="261">USD - US Dollars</text>

    <text x="60" y="300" font-weight="bold">Bank Name</text>
    <rect x="260" y="284" width="660" height="24" fill="#f6f8fb" stroke="#cbd5e0"/>
    <text x="272" y="301">University of Wisconsin Credit Union</text>

    <text x="60" y="340" font-weight="bold">ABA Routing Number</text>
    <rect x="260" y="324" width="220" height="24" fill="#f6f8fb" stroke="#cbd5e0"/>
    <text x="272" y="341">275979076</text>
    <text x="520" y="340" font-weight="bold">Account / IBAN</text>
    <rect x="700" y="324" width="220" height="24" fill="#f6f8fb" stroke="#cbd5e0"/>
    <text x="712" y="341">235405601</text>

    <text x="60" y="380" font-weight="bold">SWIFT Code</text>
    <rect x="260" y="364" width="220" height="24" fill="#f6f8fb" stroke="#cbd5e0"/>
    <text x="272" y="381"></text>
    <text x="520" y="380" font-weight="bold">Bank ID</text>
    <rect x="700" y="364" width="220" height="24" fill="#f6f8fb" stroke="#cbd5e0"/>
    <text x="712" y="381"></text>

    <text x="60" y="420" font-weight="bold">Bank Address</text>
    <rect x="260" y="404" width="660" height="24" fill="#f6f8fb" stroke="#cbd5e0"/>
    <text x="272" y="421"></text>

    <text x="60" y="480" font-weight="bold">Beneficiary Address</text>
    <rect x="260" y="464" width="660" height="24" fill="#f6f8fb" stroke="#cbd5e0"/>
    <text x="272" y="481">604 W Milwaukee St, Stoughton, 53589, United states</text>
  </g>

  <text x="60" y="560" fill="#0a3d62" font-size="22" font-weight="bold">7. AUTHORIZATION</text>
  <line x1="60" y1="570" x2="940" y2="570" stroke="#0a3d62" stroke-width="1.5"/>

  <g font-size="13" fill="#222">
    <text x="60" y="608">I authorize payment of medical benefits to the provider identified on page 1, and direct that any</text>
    <text x="60" y="630">remainder be deposited into the bank account listed above. I certify that the information I have</text>
    <text x="60" y="652">provided is accurate, complete, and true to the best of my knowledge.</text>

    <text x="60" y="710" font-weight="bold">Signature</text>
    <line x1="180" y1="715" x2="560" y2="715" stroke="#333" stroke-width="1"/>
    <text x="200" y="708" font-style="italic" fill="#555">Shelly L. Maldonado</text>
    <text x="600" y="710" font-weight="bold">Date</text>
    <line x1="680" y1="715" x2="900" y2="715" stroke="#333" stroke-width="1"/>
    <text x="700" y="708" fill="#555">2026-02-28</text>
  </g>

  <text x="60" y="1240" fill="#888" font-size="11">Claim Form — claim_id_f3bdf449978345e990108e511696fb99 — Page 2 of 3</text>
</svg>
